<?xml version="1.0" encoding="UTF-8"?>
<svg xmlns="http://www.w3.org/2000/svg" width="218px" height="218px" viewBox="0 0 33.04 33.04">
  <path class="fil0" d="M1.34 0c-0.73,0 -1.34,0.61 -1.34,1.34l0 30.36c0,0.73 0.61,1.34 1.34,1.34l30.36 0c0.73,0 1.34,-0.61 1.34,-1.34l0 -30.36c0,-0.73 -0.61,-1.34 -1.34,-1.34l-30.36 0zm0.6 7.77l29.15 0 0 23.32 -29.15 0 0 -23.32zm0 -5.83l29.15 0 0 3.89 -29.15 0 0 -3.89zm18.47 26.24c0.54,0 0.97,-0.43 0.97,-0.97 0,-0.55 -0.43,-0.97 -0.97,-0.97l-2.92 0 0 -5.93c3.46,-0.66 4.86,-4.19 4.86,-7.68l0 -0.88c0,-0.58 -0.49,-1.06 -1.06,-1.06l-9.54 0c-0.58,0 -1.06,0.48 -1.06,1.06l0 0.88c0,3.49 1.4,7.02 4.86,7.68l0 5.93 -2.92 0c-0.54,0 -0.97,0.42 -0.97,0.97 0,0.54 0.43,0.97 0.97,0.97l7.78 0zm0 -15.55c0,3.25 -1.37,5.83 -3.89,5.83 -2.52,0 -3.89,-2.58 -3.89,-5.83l7.78 0z"/>
</svg>
