<?xml version="1.0" encoding="UTF-8"?>
<svg width="500px" height="500px" version="1.1" viewBox="0 0 100 38.3" xmlns="http://www.w3.org/2000/svg">
 <path d="m88.644 22.229v1.29c0 1.0842 0.9787 2.0801 2.5154 2.0801 2.2041 0 3.0891-1.6659 3.2698-2.3637 2.3821 0 4.2564-0.0014 4.9305-0.0014-0.73469 2.2845-3.7645 4.9977-9.336 4.9977-7.2612 0-9.5378-3.9333-9.5378-6.9393 0-3.2065 2.6301-7.0224 9.5259-7.0224 5.9619 0 9.5259 3.4558 9.5259 7.0237 0 0.59619-0.05012 0.93518-0.05012 0.93518zm0-2.1685h2.762v-1.7688c0-0.5342-0.42604-1.3797-1.3902-1.3797-0.89429 0-1.3718 0.80987-1.3718 1.3718zm-20.232 4.7854h-1.9627v2.7673h13.263v-2.7673h-1.9891v-14.071h-11.274v2.7686h1.9627zm-13.664-2.6169v1.29c0 1.0842 0.98134 2.0801 2.518 2.0801 2.2027 0 3.0891-1.6659 3.2685-2.3637 2.3835 0 4.2578-0.0014 4.9318-0.0014-0.73469 2.2845-3.7658 4.9977-9.336 4.9977-7.2625 0-9.5378-3.9333-9.5378-6.9393 0-3.2065 2.6275-7.0224 9.5272-7.0224 5.9593 0 9.5259 3.4558 9.5259 7.0237 0 0.59619-0.05144 0.93518-0.05144 0.93518zm0-2.1685h2.7633v-1.7688c0-0.5342-0.42604-1.3797-1.3902-1.3797-0.89297 0-1.3731 0.80987-1.3731 1.3718zm-12.509-7.5487-1.2834-2.4428-4.052 2.0893 1.2834 2.4666zm1.6105 2.4415h-10.895v2.7686h1.9864v7.124h-1.9864v2.7673h12.883v-2.7673h-1.9877zm-22.597-4.1786h9.915v2.7699h-1.9877v11.301h1.9877v2.7673h-12.887v-2.7673h1.9891v-7.3245l-7.3218 10.092-7.3495-10.092v7.3245h1.9891v2.7673h-7.124v-2.7673h1.964v-11.301h-1.964v-2.7699h11.25l4.7814 6.57z"/>
</svg>
