<?xml version="1.0" encoding="UTF-8"?>
<svg width="100" height="100" version="1.1" viewBox="0 0 263.79 263.8" xmlns="http://www.w3.org/2000/svg">
 <path class="fil0" d="m66.604 62.981c-4.082 0-7.2511 3.1689-7.2511 7.2511 0 40.124 32.414 72.551 72.551 72.551 40.124 0 72.551-32.414 72.551-72.551 0-4.082-3.1689-7.2511-7.2511-7.2511h-130.59zm122.88 14.515c-3.6255 28.562-28.117 50.784-57.578 50.784-29.474 0-53.953-22.223-57.578-50.784h115.17zm-64.844 116.07c0 4.082 3.1689 7.2511 7.2511 7.2511 4.082 0 7.2511-3.1689 7.2511-7.2511v-21.767c0-4.082-3.1689-7.2511-7.2511-7.2511-4.082 0-7.2511 3.1689-7.2511 7.2511zm130.59-116.07c4.082 0 7.2511-3.1689 7.2511-7.2511 0-4.082-3.1689-7.2511-7.2511-7.2511h-21.767c-4.082 0-7.2511 3.1689-7.2511 7.2511 0 4.082 3.1689 7.2511 7.2511 7.2511zm-224.89 0c4.082 0 7.2511-3.1689 7.2511-7.2511 0-4.082-3.1689-7.2511-7.2511-7.2511h-21.767c-4.082 0-7.2511 3.1689-7.2511 7.2511 0 4.082 3.1689 7.2511 7.2511 7.2511zm34.911 69.598c2.954-2.726 2.954-7.2511 0-10.205-2.9408-2.954-7.4794-2.954-10.205 0l-15.415 15.415c-2.954 2.954-2.954 7.2511 0 10.205 2.9408 2.954 7.2511 2.954 10.205 0zm148.71 15.415c2.9408 2.954 7.4794 2.954 10.205 0 2.9408-2.726 2.9408-7.2511 0-10.205l-15.415-15.415c-2.726-2.954-7.2511-2.954-10.205 0-2.9408 2.9408-2.9408 7.4794 0 10.205z"/>
</svg>
