<?xml version="1.0" encoding="UTF-8"?>
<svg width="100" height="100" viewBox="0 0 653.43 653.43" xmlns="http://www.w3.org/2000/svg">
 <path class="fil0" d="m47.374 164.99c-24.346 0-44.111 19.754-44.111 44.111v235.24c0 24.357 19.754 44.111 44.111 44.111h514.58c24.357 0 44.111-19.754 44.111-44.111v-29.4l34.454-12.865c6.4381-2.2962 9.6461-8.2728 9.6461-13.788v-123.14c0-5.5152-3.219-11.481-9.6461-13.788l-34.454-12.865v-29.4c0-24.357-19.754-44.111-44.111-44.111zm529.28 279.34c0 8.2728-6.4381 14.7-14.7 14.7h-514.58c-8.2728 0-14.7-6.438-14.7-14.7v-235.24c0-8.2728 6.4271-14.7 14.7-14.7h514.58c8.2728 0 14.7 6.4381 14.7 14.7zm-44.111-102.92c8.2728 0 14.7-6.4271 14.7-14.7 0-8.2728-6.4381-14.7-14.7-14.7h-58.811v-58.811c0-8.2728-6.4271-14.7-14.7-14.7-8.2728 0-14.7 6.4381-14.7 14.7v58.811h-58.811c-8.2728 0-14.7 6.4381-14.7 14.7 0 8.2728 6.427 14.7 14.7 14.7h58.811v58.811c0 8.2728 6.438 14.7 14.7 14.7 8.2728 0 14.7-6.4381 14.7-14.7v-58.811zm-308.75 0c8.2728 0 14.7-6.4271 14.7-14.7 0-8.2728-6.4381-14.7-14.7-14.7h-147.02c-8.2728 0-14.7 6.4381-14.7 14.7 0 8.2728 6.4381 14.7 14.7 14.7z"/>
</svg>
