<?xml version="1.0" encoding="UTF-8"?>
<svg width="100" height="100" version="1.1" viewBox="0 0 2217.3 2217.3" xmlns="http://www.w3.org/2000/svg">
  <path class="fil0" d="m1547.7 962.3c162.34 0 292.68-130.34 292.68-292.68 0-162.34-130.34-292.68-292.68-292.68s-292.68 130.34-292.68 292.68c0 162.34 130.34 292.68 292.68 292.68zm0 878.05c162.34 0 292.68-130.34 292.68-292.68s-130.34-292.68-292.68-292.68-292.68 130.34-292.68 292.68 130.34 292.68 292.68 292.68zm-878.05-878.05c162.34 0 292.68-130.34 292.68-292.68 0-162.34-130.34-292.68-292.68-292.68-162.34 0-292.68 130.34-292.68 292.68 0 162.34 130.34 292.68 292.68 292.68zm0 878.05c162.34 0 292.68-130.34 292.68-292.68s-130.34-292.68-292.68-292.68c-162.34 0-292.68 130.34-292.68 292.68s130.34 292.68 292.68 292.68zm1390.2 146.35c0 41.162-32.016 73.167-73.167 73.167h-1756.1c-41.162 0-73.167-32.016-73.167-73.167v-1756.1c0-41.162 32.016-73.167 73.167-73.167h1756.1c41.162 0 73.167 32.016 73.167 73.167zm-73.167 219.51c121.19 0 219.51-98.321 219.51-219.51v-1756.1c0-121.19-98.321-219.51-219.51-219.51h-1756.1c-121.19 0-219.51 98.321-219.51 219.51v1756.1c0 121.19 98.321 219.51 219.51 219.51z"/>
</svg>
