<?xml version="1.0" encoding="UTF-8"?>
<svg width="100" height="100" version="1.1" viewBox="0 0 2217.3 2217.3" xmlns="http://www.w3.org/2000/svg">
 <path class="fil0" d="m1818.8 75.62c0-36.374-28.16-64.534-64.534-64.534h-1291.3c-36.374 0-64.534 28.16-64.534 64.534v1787.6c0 30.311 18.187 54.56 46.347 62.578l897.8 276.32c6.0622 1.9553 16.231 4.1068 24.249 4.1068 36.374 0 64.534-28.16 64.534-64.534v-193.6h322.86c36.374 0 64.534-28.16 64.534-64.534zm-1291.3 82.721 774.8 237.99v1664.6l-774.8-240.14v-1662.6zm1162.2-18.187v1678.7h-258.33v-1464.9c0-32.267-20.142-52.409-42.436-60.623l-498.28-153.32h799.05z"/>
</svg>
