<?xml version="1.0" encoding="UTF-8"?>
<svg width="100" height="100" viewBox="0 0 2217.3 2217.3" xmlns="http://www.w3.org/2000/svg">
  <path class="fil0" d="m1547.7 1648.3c48.018-91.46 73.166-182.93 73.166-272.1 0-290.4-146.34-292.68-146.34-535.06 0-137.2 68.6-198.94 68.6-244.67 0-41.154-32.012-73.166-73.166-73.166-22.87 0-50.306 11.43-68.6 45.73-48.018 91.46-73.166 182.93-73.166 272.1 0 290.4 146.34 292.68 146.34 535.06 0 137.2-68.6 198.94-68.6 244.67 0 41.154 32.012 73.166 73.166 73.166 22.87 0 50.306-11.43 68.6-45.73zm-365.85 0c48.018-91.46 73.166-182.93 73.166-272.1 0-290.4-146.34-292.68-146.34-535.06 0-137.2 68.6-198.94 68.6-244.67 0-41.154-32.012-73.166-73.166-73.166-22.87 0-50.306 11.43-68.6 45.73-48.018 91.46-73.166 182.93-73.166 272.1 0 290.4 146.34 292.68 146.34 535.06 0 137.2-68.6 198.94-68.6 244.67 0 41.154 32.012 73.166 73.166 73.166 22.87 0 50.306-11.43 68.6-45.73zm-365.85 0c48.018-91.46 73.166-182.93 73.166-272.1 0-290.4-146.34-292.68-146.34-535.06 0-137.2 68.6-198.94 68.6-244.67 0-41.154-32.012-73.166-73.166-73.166-22.87 0-50.306 11.43-68.6 45.73-48.018 91.46-73.166 182.93-73.166 272.1 0 290.4 146.34 292.68 146.34 535.06 0 137.2-68.6 198.94-68.6 244.67 0 41.154 32.012 73.166 73.166 73.166 22.87 0 50.306-11.43 68.6-45.73zm292.68 557.93c605.95 0 1097.6-491.62 1097.6-1097.6 1e-4 -605.95-491.62-1097.6-1097.6-1097.6-605.95 0-1097.6 491.62-1097.6 1097.6 0 605.95 491.62 1097.6 1097.6 1097.6zm951.22-1097.6c0 525.92-425.31 951.22-951.22 951.22-525.92 0-951.22-425.31-951.22-951.22 0-525.92 425.31-951.22 951.22-951.22 525.92 0 951.22 425.31 951.22 951.22z"/>
</svg>
