<?xml version="1.0" encoding="UTF-8"?>
<svg width="100" height="100" version="1.1" viewBox="0 0 2217.3 2217.3" xmlns="http://www.w3.org/2000/svg">
 <path class="fil0" d="m1956.3 2092.7c142.29 0 249.92-109.58 249.92-246.02 0-46.129-11.59-86.52-40.391-136.44l-843.86-1462.7c-42.227-73.094-119.22-123.01-213.32-123.01-94.208 0-171.09 49.915-213.32 123.01l-843.86 1462.7c-28.802 50.03-40.391 90.306-40.391 136.44 0 136.44 107.63 246.02 249.92 246.02zm107.63-315.21c9.6389 17.327 19.163 42.227 19.163 69.193 0 67.242-53.817 123.01-128.75 123.01h-1691.5c-74.93 0-128.75-55.768-128.75-123.01 0-26.966 9.6388-51.866 19.278-69.193l849.59-1470.5c19.163-32.703 55.767-61.505 105.68-61.505 50.03 0 86.52 28.802 105.68 61.505zm-1018.7-288.36c0 34.654 28.802 61.505 63.456 61.505 34.654 0 63.456-26.966 63.456-61.505l23.064-813.1c1.9507-51.866-34.654-94.208-86.52-94.208-51.866 0-88.471 42.227-86.52 94.208zm-23.064 274.82c0 48.079 38.44 86.52 86.52 86.52 48.079 0 86.52-38.441 86.52-86.52 0-48.079-38.441-86.52-86.52-86.52-48.079 0-86.52 38.44-86.52 86.52z"/>
</svg>
