<?xml version="1.0" encoding="UTF-8"?>
<svg width="100" height="100" version="1.1" viewBox="0 0 2217.3 2217.3" xmlns="http://www.w3.org/2000/svg">
 <path class="fil0" d="m1108.5 638.05c173.91 0 313.48-139.57 313.48-313.48 0-173.91-139.57-313.48-313.48-313.48-173.91 0-313.48 139.57-313.48 313.48 0 173.91 139.57 313.48 313.48 313.48zm470.6 1568.2c44.037 0 78.371-34.334 78.371-78.371 0-44.037-34.334-78.371-78.371-78.371h-156.74v-1176.3c0-44.037-34.334-78.371-78.371-78.371h-705.71c-44.037 0-78.371 34.334-78.371 78.371s34.334 78.371 78.371 78.371h156.74v1097.6h-156.74c-44.037 0-78.371 34.334-78.371 78.371s34.334 78.371 78.371 78.371h940.82z"/>
</svg>
