<?xml version="1.0" encoding="UTF-8"?>
<svg width="100" height="100" version="1.1" viewBox="0 0 2217.3 2217.3" xmlns="http://www.w3.org/2000/svg">
 <path class="fil0" d="m1035.5 1767.2c0 41.12 32.018 73.138 73.138 73.138 41.12 0 73.138-32.018 73.138-73.138v-1317.1c0-41.12-32.018-73.138-73.138-73.138-41.12 0-73.138 32.018-73.138 73.138zm73.138 438.99c605.91 0 1097.6-491.65 1097.6-1097.6 0-605.91-491.65-1097.6-1097.6-1097.6-605.91 0-1097.6 491.65-1097.6 1097.6 0 605.91 491.65 1097.6 1097.6 1097.6zm951.29-1097.6c0 525.95-425.34 951.29-951.29 951.29-525.95 0-951.29-425.34-951.29-951.29 0-525.95 425.34-951.29 951.29-951.29 525.95 0 951.29 425.34 951.29 951.29z"/>
</svg>
