<?xml version="1.0" encoding="UTF-8"?>
<svg width="100" height="100" version="1.1" viewBox="0 0 2217.3 2217.3" xmlns="http://www.w3.org/2000/svg">
 <path class="fil0" d="m998.87 1145.2c0 22.915 9.101 41.117 27.466 57.206l788.86 697.36c32.016 27.466 79.959 27.466 107.42-4.5505 173.73-196.65 283.59-459.6 283.59-750.02 0-626.51-507.54-1134-1134-1134-41.117 0-73.133 32.016-73.133 73.133v1060.9zm-987.78 0c0 585.39 475.53 1060.9 1060.9 1060.9 189.82 0 384.19-52.656 548.82-153.25 25.19-15.927 36.566-41.117 36.566-64.032 0-61.757-66.307-89.222-111.97-61.757-139.44 86.947-308.62 132.61-473.25 132.61-505.27 0-914.65-409.22-914.65-914.65 0-400.12 258.4-752.29 642.43-873.37 27.466-9.101 52.656-34.291 52.656-70.858 0-50.38-47.943-84.672-98.323-68.582-434.41 137.16-743.19 541.83-743.19 1013z"/>
</svg>
