<?xml version="1.0" encoding="UTF-8"?>
<svg width="100" height="100" version="1.1" viewBox="0 0 2217.3 2217.3" xmlns="http://www.w3.org/2000/svg">
 <path class="fil0" d="m11.086 1108.7c0 34.303 26.676 60.979 60.979 60.979h611.66c28.583 285.83 270.58 548.78 607.85 548.78h403.96c34.303 0 60.979-26.676 60.979-60.979v-243.91h388.72c34.303 0 60.979-26.676 60.979-60.979s-26.676-60.979-60.979-60.979h-388.72v-365.85h388.72c34.303 0 60.979-26.676 60.979-60.979s-26.676-60.979-60.979-60.979h-388.72v-243.91c0-34.303-26.676-60.979-60.979-60.979h-403.96c-337.27 0-581.17 262.96-607.85 548.78h-611.66c-34.303 0-60.979 26.676-60.979 60.978zm1280.5 487.8c-268.68 0-487.8-219.13-487.8-487.8 0-268.68 219.13-487.8 487.8-487.8h342.99v975.62z" fill="#030303"/>
</svg>
