<?xml version="1.0" encoding="UTF-8"?>
<svg width="100" height="100" version="1.1" viewBox="0 0 2217.3 2217.3" xmlns="http://www.w3.org/2000/svg">
 <path class="fil0" d="m932.94 2206c44.944 0 72.875-29.962 72.875-70.843v-1367.6c0-40.627-27.931-70.843-72.875-70.843h-368.69c-44.944 0-72.875 29.962-72.875 70.843v1367.6c0 40.627 27.931 70.843 72.875 70.843zm-64.241-137.12h-239.95v-1234.6h239.95zm-115.79-1491.8c17.266 0 29.962-6.348 40.627-17.266 64.241-64.241 107.15-175.71 107.15-265.85s-47.229-201.61-111.47-265.85c-10.665-10.665-23.614-17.013-40.627-17.013s-29.962 6.348-40.627 17.013c-64.241 64.241-107.15 175.71-107.15 265.85s47.229 201.36 111.47 265.85c10.665 10.665 23.614 17.266 40.627 17.266zm900.14 1629.1c44.944 0 72.875-29.962 72.875-70.843v-1367.6c0-40.627-27.931-70.843-72.875-70.843h-368.69c-44.944 0-72.875 29.962-72.875 70.843v1367.6c0 40.627 27.931 70.843 72.875 70.843zm-64.242-137.12h-239.95v-1234.6h239.95zm-115.79-1491.8c17.013 0 29.962-6.348 40.627-17.266 64.241-64.241 107.15-175.71 107.15-265.85s-47.229-201.61-111.47-265.85c-10.665-10.665-23.614-17.013-40.627-17.013-17.266 0-29.962 6.348-40.627 17.013-64.241 64.241-107.15 175.71-107.15 265.85s47.229 201.36 111.47 265.85c10.665 10.665 23.614 17.266 40.627 17.266z"/>
</svg>
