<?xml version="1.0" encoding="UTF-8"?>
<svg width="100" height="100" version="1.1" viewBox="0 0 2217.3 2217.3" xmlns="http://www.w3.org/2000/svg">
 <path class="fil0" d="m2141.7 1279.1c30.281 0 64.557-24.072 64.557-66.136 0-625.5-502.41-1066.6-1146-1066.6-607.3 0-1049.1 372.93-1049.1 988.39 0 487.21 316.79 936.27 879.7 936.27 484.18 0 780.8-310.77 780.8-755.85 0-314.74-199.73-655.6-621.41-655.6-328.84 0-524.57 192.45-524.57 477.16 0 292.71 236.06 423.06 470.13 421.02 36.337 0 64.557-28.043 64.557-64.151 0-36.108-28.22-64.151-64.557-64.151-177.56 0-338.96-80.22-338.96-304.75 0-194.5 131.17-336.82 387.4-336.82 336.96 0 496.35 262.62 496.35 531.33 0 358.85-230.01 623.52-649.63 623.52-492.29 0-750.52-396.94-750.52-807.97 0-547.33 385.34-860.08 920.03-860.08 566.97 0 1016.9 382.92 1016.9 938.32 0 44.112 34.276 66.136 64.557 66.136z"/>
</svg>
