<?xml version="1.0" encoding="UTF-8"?>
<svg width="100" height="100" version="1.1" viewBox="0 0 2217.3 2217.3" xmlns="http://www.w3.org/2000/svg">
 <path class="fil0" d="m2184 1159.1c16.17-16.17 22.227-34.276 22.227-50.447s-4.0582-32.278-22.227-50.447l-1024.9-1024.9c-18.168-18.168-34.276-22.164-50.447-22.164-16.108 0-34.276 6.0561-50.447 22.164l-1024.9 1024.9c-18.168 18.168-22.227 34.276-22.227 50.447 0 16.108 6.0561 34.276 22.227 50.447l1024.9 1024.9c16.17 16.17 34.276 22.227 50.447 22.227s32.278-4.0582 50.447-22.227zm-133.17-50.447-942.2 942.2-942.2-942.2 942.2-942.2zm-1006.8 581.08c0 36.337 28.22 64.557 64.557 64.557 36.337 0 64.557-28.22 64.557-64.557v-1162.2c0-36.337-28.22-64.557-64.557-64.557-36.337 0-64.557 28.22-64.557 64.557z"/>
</svg>
