<?xml version="1.0" encoding="UTF-8"?>
<svg width="100" height="100" version="1.1" viewBox="0 0 2217.3 2217.3" xmlns="http://www.w3.org/2000/svg">
 <path class="fil0" d="m1044.7 1803.8c11.388 20.61 36.569 36.569 63.996 36.569s52.609-16.039 63.996-36.569l583.11-1008.4c6.8969-11.468 11.468-25.182 11.468-41.141 0-41.141-31.998-73.139-73.139-73.139h-1170.8c-41.141 0-73.139 31.998-73.139 73.139 0 16.039 4.5712 29.753 11.468 41.141l583.11 1008.4zm63.996-180.68-459.6-795.79h919.21zm0 583.11c605.96 0 1097.6-491.6 1097.6-1097.6 0-605.96-491.6-1097.6-1097.6-1097.6-605.96 0-1097.6 491.6-1097.6 1097.6 0 605.96 491.6 1097.6 1097.6 1097.6zm951.29-1097.6c0 525.93-425.36 951.29-951.29 951.29-525.93 0-951.29-425.36-951.29-951.29 0-525.93 425.36-951.29 951.29-951.29 525.93 0 951.29 425.36 951.29 951.29z"/>
</svg>
