<?xml version="1.0" encoding="UTF-8"?>
<svg width="100" height="100" version="1.1" viewBox="0 0 2217.3 2217.3" xmlns="http://www.w3.org/2000/svg">
  <path class="fil0" d="m1387.8 1270.8-278.97 160.02-278.97-160.02v-324.69l278.97-160.02 278.97 160.02zm73.227 125.82 155.56 89.21v294.95c0 41.074 31.967 73.227 73.227 73.227 41.074 0 73.227-31.967 73.227-73.227v-210.39l196.63 114.3c43.49 25.09 109.84-2.2302 109.84-64.12 0-27.506-13.753-50.366-36.613-63.934l-194.4-112.07 180.65-105.19c20.63-11.337 36.613-34.383 36.613-63.934 0-66.35-68.58-86.98-109.84-63.934l-256.11 148.68-155.37-91.44v-320.04l155.37-91.44 256.11 148.68c41.074 22.86 109.84 2.2303 109.84-64.12 0-29.737-15.984-52.597-36.613-63.934l-180.65-105.19 194.4-112.07c22.86-13.753 36.613-36.613 36.613-64.12 0-61.704-66.35-89.21-109.84-63.934l-196.63 114.3v-210.39c0-41.074-31.967-73.227-73.227-73.227-41.074 0-73.227 31.967-73.227 73.227v294.95l-155.56 89.21-278.97-160.02v-180.65l251.46-144.04c20.63-11.337 41.074-31.967 41.074-66.35 0-41.074-31.967-73.227-73.227-73.227-15.984 0-27.506 4.6464-43.49 13.753l-176 100.55v-226.37c0-41.074-31.967-73.227-73.227-73.227-41.074 0-73.227 31.967-73.227 73.227v226.37l-176-100.55c-15.983-9.1069-27.506-13.753-43.49-13.753-41.074 0-73.227 31.967-73.227 73.227 0 34.383 20.63 54.827 41.074 66.35l251.46 144.04v180.65l-278.97 160.02-155.56-89.21v-294.95c0-41.074-31.967-73.227-73.227-73.227-41.074 0-73.227 31.967-73.227 73.227v210.39l-196.63-114.3c-43.49-25.09-109.84 2.2303-109.84 63.934 0 27.506 13.753 50.367 36.613 64.12l194.4 112.07-180.65 105.19c-20.63 11.523-36.613 34.383-36.613 63.934 0 66.35 68.58 86.98 109.84 64.12l256.11-148.68 155.56 91.44v320.04l-155.56 91.44-256.11-148.68c-41.074-22.86-109.84-2.2303-109.84 63.934 0 29.737 15.983 52.597 36.613 63.934l180.65 105.19-194.4 112.07c-22.86 13.753-36.613 36.613-36.613 63.934 0 61.704 66.35 89.21 109.84 64.12l196.63-114.3v210.39c0 41.074 31.967 73.227 73.227 73.227 41.074 0 73.227-31.967 73.227-73.227v-294.95l155.56-89.21 278.97 160.02v180.65l-251.46 144.04c-20.63 11.523-41.074 31.967-41.074 66.35 0 41.074 31.967 73.227 73.227 73.227 15.983 0 27.506-4.6463 43.49-13.753l176-100.55v226.37c0 41.074 31.967 73.227 73.227 73.227 41.074 0 73.227-31.967 73.227-73.227v-226.37l176 100.55c15.984 9.1069 27.506 13.753 43.49 13.753 41.074 0 73.227-31.967 73.227-73.227 0-34.383-20.63-54.827-41.074-66.35l-251.46-144.04v-180.65z"/>
</svg>
