<?xml version="1.0" encoding="UTF-8"?>
<svg width="100" height="100" version="1.1" viewBox="0 0 2217.3 2217.3" xmlns="http://www.w3.org/2000/svg">
 <path class="fil0" d="m648.34 1436.1c-110.62 79.689-176.94 208.14-176.94 345.23 0 234.61 190.31 424.92 424.92 424.92 234.61 0 424.92-190.31 424.92-424.92 0-137.1-66.32-265.54-176.94-345.23v-1177.3c0-137.1-110.62-247.72-247.72-247.72s-247.72 110.62-247.72 247.72v1177.3zm354.15-575.39h-212.33v-601.86c0-57.408 48.757-106.17 106.17-106.17s106.17 48.757 106.17 106.17zm672.64 141.55c39.845 0 70.777-30.932 70.777-70.777 0-39.845-30.932-70.777-70.777-70.777h-283.11c-39.845 0-70.777 30.932-70.777 70.777 0 39.845 30.932 70.777 70.777 70.777zm0-283.11c39.845 0 70.777-30.932 70.777-70.777 0-39.845-30.932-70.777-70.777-70.777h-283.11c-39.845 0-70.777 30.932-70.777 70.777 0 39.845 30.932 70.777 70.777 70.777zm0-283.37c39.845 0 70.777-30.932 70.777-70.777 0-39.845-30.932-70.777-70.777-70.777h-283.11c-39.845 0-70.777 30.932-70.777 70.777 0 39.845 30.932 70.777 70.777 70.777z"/>
</svg>
