<?xml version="1.0" encoding="UTF-8"?>
<svg width="100" height="100" version="1.1" viewBox="0 0 2217.3 2217.3" xmlns="http://www.w3.org/2000/svg">
 <path class="fil0" d="m1108.6 1182.6c38.554 0 68.58-30.026 68.58-68.58v-617.36c0-38.554-30.026-68.58-68.58-68.58s-68.58 30.026-68.58 68.58v548.78h-422.33c-38.554 0-68.58 30.026-68.58 68.58s30.026 68.58 68.58 68.58zm-366.58-840.3c0-42.854-34.325-79.294-79.294-79.294-45.039 0-79.294 36.44-79.294 79.294s34.325 79.294 79.294 79.294c45.039 0 79.294-36.44 79.294-79.294zm-325.84 325.84c0-42.854-34.325-79.294-79.294-79.294-45.039 0-79.294 36.44-79.294 79.294s34.325 79.294 79.294 79.294c45.039 0 79.294-36.44 79.294-79.294zm-130.75 514.46c38.554 0 68.58-30.026 68.58-68.58 0-38.554-30.026-68.58-68.58-68.58h-205.81c-38.554 0-68.58 30.026-68.58 68.58 0 38.554 30.026 68.58 68.58 68.58zm1269-761.01c45.039 0 79.294-36.44 79.294-79.294s-34.325-79.294-79.294-79.294c-45.039 0-79.294 36.44-79.294 79.294s34.325 79.294 79.294 79.294zm325.84 325.84c45.039 0 79.294-36.44 79.294-79.294s-34.325-79.294-79.294-79.294c-45.039 0-79.294 36.44-79.294 79.294s34.325 79.294 79.294 79.294zm-771.72-445.88c45.039 0 79.294-36.44 79.294-79.294 0-42.854-34.325-79.294-79.294-79.294-45.039 0-79.294 36.44-79.294 79.294 0 42.854 34.325 79.294 79.294 79.294zm1029 881.04c38.554 0 68.58-30.026 68.58-68.58 0-38.554-30.026-68.58-68.58-68.58h-205.81c-38.554 0-68.58 30.026-68.58 68.58 0 38.554 30.026 68.58 68.58 68.58zm-1519.9 390.12c62.166 19.312 96.491-25.726 96.491-64.281 0-36.44-25.726-60.052-51.453-66.466l-400.91-107.2c-34.325-8.5989-74.994 8.5989-85.778 47.153l-107.2 390.12c-15.013 53.567 19.312 94.306 64.281 94.306 32.14 0 57.867-21.427 66.466-49.268l66.466-244.36c180.08 330.14 514.46 501.63 842.48 501.63 430.86 0 786.73-280.8 913.25-662.4 2.1145-6.414 4.2995-15.013 4.2995-23.612 0-38.554-30.026-68.58-68.58-68.58-30.026 0-55.752 19.312-64.281 47.153-115.73 347.27-433.05 570.21-784.62 570.21-304.42 0-580.92-167.19-724.57-433.05l233.65 68.58z"/>
</svg>
