<?xml version="1.0" encoding="UTF-8"?>
<svg width="100" height="100" version="1.1" viewBox="0 0 2217.3 2217.3" xmlns="http://www.w3.org/2000/svg">
 <path class="fil0" d="m1108.6 1181.8c41.141 0 73.139-31.998 73.139-73.139v-731.71c0-41.141-31.998-73.139-73.139-73.139s-73.139 31.998-73.139 73.139v658.57h-512.21c-41.141 0-73.139 31.998-73.139 73.139s31.998 73.139 73.139 73.139zm0 1024.4c605.96 0 1097.6-491.6 1097.6-1097.6 0-605.96-491.6-1097.6-1097.6-1097.6-605.96 0-1097.6 491.6-1097.6 1097.6 0 605.96 491.6 1097.6 1097.6 1097.6zm951.29-1097.6c0 525.93-425.36 951.29-951.29 951.29-525.93 0-951.29-425.36-951.29-951.29 0-525.93 425.36-951.29 951.29-951.29 525.93 0 951.29 425.36 951.29 951.29z"/>
</svg>
