<?xml version="1.0" encoding="UTF-8"?>
<svg width="100" height="100" version="1.1" viewBox="0 0 2217.3 2217.3" xmlns="http://www.w3.org/2000/svg">
 <path class="fil0" d="m1109.2 1254.5c33.875 0 60.263-26.389 60.263-60.263v-542.24c0-33.875-26.388-60.263-60.263-60.263-33.875 0-60.263 26.389-60.263 60.263v482.04h-370.94c-33.875 0-60.263 26.326-60.263 60.264 0 33.874 26.326 60.263 60.263 60.263h431.2zm0 792.72c39.552 0 69.683-32.003 69.683-69.683 0-37.68-30.132-69.683-69.683-69.683-39.552 0-69.683 32.003-69.683 69.683 0 37.68 30.131 69.683 69.683 69.683zm-783.3-783.3c39.552 0 69.683-32.003 69.683-69.683 0-37.68-30.132-69.683-69.683-69.683-39.552 0-69.683 32.003-69.683 69.683 0 37.68 30.132 69.683 69.683 69.683zm1174.9 677.87c39.552 0 69.683-32.003 69.683-69.683 0-37.68-30.132-69.684-69.683-69.684-39.552 0-69.683 32.003-69.683 69.684 0 37.68 30.132 69.683 69.683 69.683zm286.22-286.22c39.552 0 69.683-32.003 69.683-69.683 0-37.68-30.132-69.683-69.683-69.683-39.552 0-69.683 32.003-69.683 69.683 0 37.68 30.132 69.683 69.683 69.683zm-999.83 216.54c0-37.68-30.132-69.684-69.683-69.684-39.552 0-69.683 32.003-69.683 69.684 0 37.68 30.132 69.683 69.683 69.683 39.552 0 69.683-32.003 69.683-69.683zm-286.22-286.22c0-37.68-30.132-69.683-69.683-69.683-39.552 0-69.683 32.003-69.683 69.683 0 37.68 30.132 69.683 69.683 69.683 39.552 0 69.683-32.003 69.683-69.683zm286.22-1069.5c0-37.68-30.132-69.683-69.683-69.683-39.552 0-69.683 32.003-69.683 69.683s30.132 69.683 69.683 69.683c39.552 0 69.683-32.003 69.683-69.683zm-286.22 286.22c0-37.68-30.132-69.683-69.683-69.683-39.552 0-69.683 32.003-69.683 69.683 0 37.68 30.132 69.683 69.683 69.683 39.552 0 69.683-32.003 69.683-69.683zm547.92-382.23c0 33.875 26.388 60.263 60.263 60.263 33.875 0 60.263-26.326 60.263-60.263v-190.15c0-33.875-26.388-60.263-60.263-60.263-33.875 0-60.263 26.389-60.263 60.263zm826.59 828.46c24.454 16.968 65.878 11.292 84.718-16.968l201.5-297.51c28.26-41.423 0-96.009-48.972-96.009-20.711 0-39.552 11.292-48.972 24.455l-124.27 186.4c-58.392-325.77-286.22-563.02-568.63-657.16-5.6769-1.8715-13.163-3.743-20.712-3.743-33.875 0-60.263 26.389-60.263 60.263 0 26.326 16.969 48.972 41.423 56.458 256.09 84.718 448.11 306.93 489.53 564.83l-175.11-120.53c-45.166-32.003-99.815-1.8715-99.815 47.038 0 22.583 13.163 41.423 28.26 50.843l301.25 201.5z" stroke-width=".99999"/>
</svg>
