<?xml version="1.0" encoding="UTF-8"?>
<svg width="100" height="100" version="1.1" viewBox="0 0 2217.3 2217.3" xmlns="http://www.w3.org/2000/svg">
 <path class="fil0" d="m1165.9 1516.8c100.59 128.05 400.09 388.71 685.94 555.61 25.188 13.65 43.389 18.201 61.752 18.201 59.477 0 153.24-91.491 215-196.63 61.752-105.14 77.678-189.81 77.678-237.75 0-45.664-29.738-70.852-59.477-89.216-288.12-164.62-663.02-297.22-825.37-320.14-11.375-36.564-29.739-70.852-57.202-98.316 61.752-150.97 137.15-544.07 137.15-875.58 0-34.289-11.375-61.752-29.739-79.953-32.014-32.014-141.7-66.302-262.93-66.302-121.23 0-230.92 34.289-262.93 66.302-18.363 18.363-29.739 45.664-29.739 79.953 0 331.51 75.403 724.78 137.15 875.58-27.463 27.464-45.664 61.752-57.202 98.316-162.34 22.913-537.24 155.52-825.37 320.14-29.739 18.363-59.477 43.389-59.477 89.216 0 47.939 16.088 132.6 77.678 237.75 61.752 105.14 155.52 196.63 214.83 196.63 18.363 0 36.564-4.5502 61.752-18.201 292.67-171.44 585.35-427.55 685.94-555.61 15.926 4.5501 36.564 6.8252 57.202 6.8252s38.839-2.2751 57.202-6.8252zm-230.92-77.678c-86.941 107.42-374.9 352.15-626.46 496.13-22.913-20.638-59.477-59.477-91.491-114.24-32.014-54.927-47.939-109.69-52.652-139.43 249.28-143.98 603.55-269.76 740.7-292.67 6.8252 18.363 18.201 34.289 29.739 50.214zm1118 242.3c-4.5501 29.739-20.638 84.666-52.652 139.43-32.014 54.927-68.577 93.766-91.491 114.24-251.56-143.98-539.52-388.71-626.46-496.13 11.375-15.926 20.638-32.014 29.738-50.214 137.15 22.913 491.58 148.69 740.7 292.67zm-797.9-1385.5c0 288.12-68.577 660.75-116.68 791.08-20.638-2.2751-38.839-2.2751-59.477 0-50.377-130.33-116.68-502.96-116.68-791.08 27.463-11.375 82.228-22.913 146.26-22.913 64.027 0 118.95 11.375 146.26 22.913zm-66.302 1008.3c0 43.389-36.564 79.953-79.953 79.953s-79.953-36.564-79.953-79.953 36.564-79.953 79.953-79.953 79.953 36.564 79.953 79.953z"/>
</svg>
